<svg width="99" height="99" viewBox="0 0 99 99" fill="none" xmlns="http://www.w3.org/2000/svg">
<rect width="99" height="99" fill="#1E1E1E"/>
<g id="Home">
<g id="Desktop - 1" clip-path="url(#clip0_0_1)">
<rect width="1440" height="1024" transform="translate(-1294 -34)" fill="white"/>
<g id="Home_2">
<g id="MDT Tool">
<g id="Desktop - 1_2" clip-path="url(#clip1_0_1)">
<rect width="1440" height="1024" transform="translate(-1294 -34)" fill="white"/>
<path id="Tainara" d="M19.4609 98.7812V113H16.7852V98.7812H19.4609ZM23.875 98.7812V100.9H12.4199V98.7812H23.875ZM29.9004 110.754V105.881C29.9004 105.523 29.8385 105.214 29.7148 104.953C29.5911 104.693 29.4023 104.491 29.1484 104.348C28.8945 104.204 28.5723 104.133 28.1816 104.133C27.8366 104.133 27.5339 104.191 27.2734 104.309C27.0195 104.426 26.8242 104.592 26.6875 104.807C26.5508 105.015 26.4824 105.256 26.4824 105.529H23.8945C23.8945 105.093 23.9987 104.68 24.207 104.289C24.4154 103.892 24.7116 103.54 25.0957 103.234C25.4863 102.922 25.9518 102.678 26.4922 102.502C27.0391 102.326 27.651 102.238 28.3281 102.238C29.1289 102.238 29.8418 102.375 30.4668 102.648C31.0983 102.915 31.5931 103.319 31.9512 103.859C32.3158 104.4 32.498 105.08 32.498 105.9V110.51C32.498 111.037 32.5306 111.49 32.5957 111.867C32.6673 112.238 32.7715 112.561 32.9082 112.834V113H30.2812C30.1576 112.733 30.0632 112.395 29.998 111.984C29.9329 111.568 29.9004 111.158 29.9004 110.754ZM30.2617 106.564L30.2812 108.098H28.6504C28.2467 108.098 27.8919 108.14 27.5859 108.225C27.2799 108.303 27.0293 108.42 26.834 108.576C26.6387 108.726 26.4922 108.908 26.3945 109.123C26.2969 109.331 26.248 109.569 26.248 109.836C26.248 110.096 26.3066 110.331 26.4238 110.539C26.5475 110.747 26.7233 110.913 26.9512 111.037C27.1855 111.154 27.459 111.213 27.7715 111.213C28.2272 111.213 28.6243 111.122 28.9629 110.939C29.3014 110.751 29.5651 110.523 29.7539 110.256C29.9427 109.989 30.0436 109.735 30.0566 109.494L30.7988 110.607C30.7077 110.874 30.571 111.158 30.3887 111.457C30.2064 111.757 29.972 112.036 29.6855 112.297C29.3991 112.557 29.054 112.772 28.6504 112.941C28.2467 113.111 27.778 113.195 27.2441 113.195C26.5605 113.195 25.9486 113.059 25.4082 112.785C24.8678 112.512 24.4414 112.137 24.1289 111.662C23.8164 111.187 23.6602 110.646 23.6602 110.041C23.6602 109.481 23.7643 108.986 23.9727 108.557C24.181 108.127 24.4902 107.766 24.9004 107.473C25.3105 107.173 25.8184 106.949 26.4238 106.799C27.0358 106.643 27.7357 106.564 28.5234 106.564H30.2617ZM37.5566 102.434V113H34.9688V102.434H37.5566ZM34.793 99.6699C34.793 99.2858 34.9232 98.9668 35.1836 98.7129C35.4505 98.459 35.8086 98.332 36.2578 98.332C36.707 98.332 37.0618 98.459 37.3223 98.7129C37.5892 98.9668 37.7227 99.2858 37.7227 99.6699C37.7227 100.048 37.5892 100.363 37.3223 100.617C37.0618 100.871 36.707 100.998 36.2578 100.998C35.8086 100.998 35.4505 100.871 35.1836 100.617C34.9232 100.363 34.793 100.048 34.793 99.6699ZM42.5469 104.689V113H39.9688V102.434H42.3906L42.5469 104.689ZM42.1367 107.336H41.375C41.3815 106.568 41.4857 105.871 41.6875 105.246C41.8893 104.621 42.1725 104.084 42.5371 103.635C42.9082 103.186 43.3477 102.84 43.8555 102.6C44.3633 102.359 44.9297 102.238 45.5547 102.238C46.0625 102.238 46.5215 102.31 46.9316 102.453C47.3418 102.596 47.6934 102.824 47.9863 103.137C48.2858 103.449 48.5137 103.859 48.6699 104.367C48.8327 104.868 48.9141 105.487 48.9141 106.223V113H46.3164V106.203C46.3164 105.721 46.2448 105.34 46.1016 105.061C45.9648 104.781 45.763 104.582 45.4961 104.465C45.2357 104.348 44.9134 104.289 44.5293 104.289C44.1322 104.289 43.7839 104.37 43.4844 104.533C43.1914 104.689 42.944 104.908 42.7422 105.188C42.5469 105.467 42.3971 105.79 42.293 106.154C42.1888 106.519 42.1367 106.913 42.1367 107.336ZM57.0098 110.754V105.881C57.0098 105.523 56.9479 105.214 56.8242 104.953C56.7005 104.693 56.5117 104.491 56.2578 104.348C56.0039 104.204 55.6816 104.133 55.291 104.133C54.946 104.133 54.6432 104.191 54.3828 104.309C54.1289 104.426 53.9336 104.592 53.7969 104.807C53.6602 105.015 53.5918 105.256 53.5918 105.529H51.0039C51.0039 105.093 51.1081 104.68 51.3164 104.289C51.5247 103.892 51.821 103.54 52.2051 103.234C52.5957 102.922 53.0612 102.678 53.6016 102.502C54.1484 102.326 54.7604 102.238 55.4375 102.238C56.2383 102.238 56.9512 102.375 57.5762 102.648C58.2077 102.915 58.7025 103.319 59.0605 103.859C59.4251 104.4 59.6074 105.08 59.6074 105.9V110.51C59.6074 111.037 59.64 111.49 59.7051 111.867C59.7767 112.238 59.8809 112.561 60.0176 112.834V113H57.3906C57.2669 112.733 57.1725 112.395 57.1074 111.984C57.0423 111.568 57.0098 111.158 57.0098 110.754ZM57.3711 106.564L57.3906 108.098H55.7598C55.3561 108.098 55.0013 108.14 54.6953 108.225C54.3893 108.303 54.1387 108.42 53.9434 108.576C53.748 108.726 53.6016 108.908 53.5039 109.123C53.4062 109.331 53.3574 109.569 53.3574 109.836C53.3574 110.096 53.416 110.331 53.5332 110.539C53.6569 110.747 53.8327 110.913 54.0605 111.037C54.2949 111.154 54.5684 111.213 54.8809 111.213C55.3366 111.213 55.7337 111.122 56.0723 110.939C56.4108 110.751 56.6745 110.523 56.8633 110.256C57.0521 109.989 57.153 109.735 57.166 109.494L57.9082 110.607C57.8171 110.874 57.6803 111.158 57.498 111.457C57.3158 111.757 57.0814 112.036 56.7949 112.297C56.5085 112.557 56.1634 112.772 55.7598 112.941C55.3561 113.111 54.8874 113.195 54.3535 113.195C53.6699 113.195 53.0579 113.059 52.5176 112.785C51.9772 112.512 51.5508 112.137 51.2383 111.662C50.9258 111.187 50.7695 110.646 50.7695 110.041C50.7695 109.481 50.8737 108.986 51.082 108.557C51.2904 108.127 51.5996 107.766 52.0098 107.473C52.4199 107.173 52.9277 106.949 53.5332 106.799C54.1452 106.643 54.8451 106.564 55.6328 106.564H57.3711ZM64.5098 104.592V113H61.9316V102.434H64.373L64.5098 104.592ZM67.7227 102.365L67.6836 104.768C67.5404 104.742 67.3776 104.722 67.1953 104.709C67.0195 104.696 66.8535 104.689 66.6973 104.689C66.3001 104.689 65.9518 104.745 65.6523 104.855C65.3529 104.96 65.1022 105.113 64.9004 105.314C64.7051 105.516 64.5553 105.764 64.4512 106.057C64.347 106.343 64.2884 106.669 64.2754 107.033L63.7188 106.965C63.7188 106.294 63.7871 105.673 63.9238 105.1C64.0605 104.527 64.2591 104.025 64.5195 103.596C64.7799 103.166 65.1055 102.834 65.4961 102.6C65.8932 102.359 66.349 102.238 66.8633 102.238C67.0065 102.238 67.1595 102.251 67.3223 102.277C67.4915 102.297 67.625 102.326 67.7227 102.365ZM74.627 110.754V105.881C74.627 105.523 74.5651 105.214 74.4414 104.953C74.3177 104.693 74.1289 104.491 73.875 104.348C73.6211 104.204 73.2988 104.133 72.9082 104.133C72.5632 104.133 72.2604 104.191 72 104.309C71.7461 104.426 71.5508 104.592 71.4141 104.807C71.2773 105.015 71.209 105.256 71.209 105.529H68.6211C68.6211 105.093 68.7253 104.68 68.9336 104.289C69.1419 103.892 69.4382 103.54 69.8223 103.234C70.2129 102.922 70.6784 102.678 71.2188 102.502C71.7656 102.326 72.3776 102.238 73.0547 102.238C73.8555 102.238 74.5684 102.375 75.1934 102.648C75.8249 102.915 76.3197 103.319 76.6777 103.859C77.0423 104.4 77.2246 105.08 77.2246 105.9V110.51C77.2246 111.037 77.2572 111.49 77.3223 111.867C77.3939 112.238 77.498 112.561 77.6348 112.834V113H75.0078C74.8841 112.733 74.7897 112.395 74.7246 111.984C74.6595 111.568 74.627 111.158 74.627 110.754ZM74.9883 106.564L75.0078 108.098H73.377C72.9733 108.098 72.6185 108.14 72.3125 108.225C72.0065 108.303 71.7559 108.42 71.5605 108.576C71.3652 108.726 71.2188 108.908 71.1211 109.123C71.0234 109.331 70.9746 109.569 70.9746 109.836C70.9746 110.096 71.0332 110.331 71.1504 110.539C71.2741 110.747 71.4499 110.913 71.6777 111.037C71.9121 111.154 72.1855 111.213 72.498 111.213C72.9538 111.213 73.3509 111.122 73.6895 110.939C74.028 110.751 74.2917 110.523 74.4805 110.256C74.6693 109.989 74.7702 109.735 74.7832 109.494L75.5254 110.607C75.4342 110.874 75.2975 111.158 75.1152 111.457C74.9329 111.757 74.6986 112.036 74.4121 112.297C74.1257 112.557 73.7806 112.772 73.377 112.941C72.9733 113.111 72.5046 113.195 71.9707 113.195C71.2871 113.195 70.6751 113.059 70.1348 112.785C69.5944 112.512 69.168 112.137 68.8555 111.662C68.543 111.187 68.3867 110.646 68.3867 110.041C68.3867 109.481 68.4909 108.986 68.6992 108.557C68.9076 108.127 69.2168 107.766 69.627 107.473C70.0371 107.173 70.5449 106.949 71.1504 106.799C71.7624 106.643 72.4622 106.564 73.25 106.564H74.9883Z" fill="#2C2C2C"/>
<g id="mingcute:user-4-fill" clip-path="url(#clip2_0_1)">
<g id="Group">
<path id="Vector" fill-rule="evenodd" clip-rule="evenodd" d="M49.5 8.25C26.7176 8.25 8.25 26.7176 8.25 49.5C8.25 72.2824 26.7176 90.75 49.5 90.75C72.2824 90.75 90.75 72.2824 90.75 49.5C90.75 26.7176 72.2824 8.25 49.5 8.25ZM35.0625 39.1875C35.0625 37.2915 35.4359 35.4141 36.1615 33.6625C36.887 31.9109 37.9505 30.3193 39.2911 28.9786C40.6318 27.638 42.2234 26.5745 43.975 25.849C45.7266 25.1234 47.604 24.75 49.5 24.75C51.396 24.75 53.2734 25.1234 55.025 25.849C56.7766 26.5745 58.3682 27.638 59.7089 28.9786C61.0495 30.3193 62.113 31.9109 62.8385 33.6625C63.5641 35.4141 63.9375 37.2915 63.9375 39.1875C63.9375 43.0166 62.4164 46.6888 59.7089 49.3964C57.0013 52.1039 53.3291 53.625 49.5 53.625C45.6709 53.625 41.9987 52.1039 39.2911 49.3964C36.5836 46.6888 35.0625 43.0166 35.0625 39.1875ZM75.3142 70.059C72.2264 73.9432 68.3009 77.0796 63.831 79.2338C59.361 81.3881 54.462 82.5046 49.5 82.5C44.538 82.5046 39.639 81.3881 35.169 79.2338C30.6991 77.0796 26.7736 73.9432 23.6858 70.059C30.3724 65.2616 39.4969 61.875 49.5 61.875C59.5031 61.875 68.6276 65.2616 75.3142 70.059Z" fill="#D0D0D0"/>
</g>
</g>
</g>
</g>
</g>
</g>
</g>
<defs>
<clipPath id="clip0_0_1">
<rect width="1440" height="1024" fill="white" transform="translate(-1294 -34)"/>
</clipPath>
<clipPath id="clip1_0_1">
<rect width="1440" height="1024" fill="white" transform="translate(-1294 -34)"/>
</clipPath>
<clipPath id="clip2_0_1">
<rect width="99" height="99" fill="white"/>
</clipPath>
</defs>
</svg>
